<svg width="6052" height="1300" viewBox="0 0 6052 1300" fill="none" xmlns="http://www.w3.org/2000/svg">
<path d="M1070.46 16.8926L56.1396 1224.64C34.0378 1250.95 52.9243 1291.08 87.2898 1290.82L313.427 1289.11C325.392 1289.02 336.697 1283.61 344.28 1274.36L1094.17 359.084C1118.15 329.813 1165.61 346.771 1165.61 384.612V401.495C1165.61 441.277 1217.14 456.978 1239.33 423.954L1272.05 375.226C1276.51 368.585 1278.89 360.767 1278.89 352.768V42.7977C1278.89 20.5516 1260.86 2.51758 1238.61 2.51758H1101.3C1089.4 2.51758 1078.11 7.77974 1070.46 16.8926Z" fill="white" stroke="white" stroke-width="5.03502"/>
<path d="M1168.12 1251.08V981.829V874.203C1168.12 867.193 1169.95 860.305 1173.43 854.218L1203.64 801.351C1224.14 765.487 1278.9 780.029 1278.9 821.335V959.936C1278.9 998.035 1326.89 1014.84 1350.66 985.063L2122.75 17.671C2130.4 8.09451 2141.98 2.51758 2154.24 2.51758H2400.87C2435.09 2.51758 2453.72 42.4957 2431.71 68.7027L1416.85 1277.1C1409.19 1286.22 1397.89 1291.48 1385.98 1291.47L1208.38 1291.36C1186.14 1291.35 1168.12 1273.32 1168.12 1251.08Z" fill="white" stroke="white" stroke-width="5.03502"/>
<path d="M5718.35 7.55273H5965.03C5999.26 7.55273 6017.89 47.531 5995.88 73.7379L5797.75 309.654L5591.41 545.848C5573.03 566.883 5539.35 563.286 5525.83 538.845L5435.78 376.069C5427.88 361.78 5429.38 344.132 5439.59 331.387L5686.92 22.6491C5694.56 13.1065 5706.13 7.55273 5718.35 7.55273Z" fill="white" stroke="white" stroke-width="5.03502"/>
<path d="M3140.8 733.905L2784.73 60.6066C2771.34 35.2925 2736.56 31.6393 2718.21 53.6194L2571.48 229.33C2560.31 242.704 2559.01 261.743 2568.25 276.514L2783.56 620.599C2800.34 647.427 2781.06 682.245 2749.41 682.245H2255.53C2226.83 682.245 2207.34 711.407 2218.31 737.927L2225.48 755.253L2446.64 1272.08C2452.98 1286.91 2467.55 1296.52 2483.67 1296.52H2722.17C2752.6 1296.52 2772.04 1264.07 2757.69 1237.24L2551.74 852.297C2537.39 825.465 2556.83 793.016 2587.26 793.016H3105.2C3135.54 793.016 3154.99 760.731 3140.8 733.905Z" fill="white" stroke="white" stroke-width="5.03502"/>
<path d="M3431.37 1291.48H3192.2C3164.38 1291.48 3149.29 1258.93 3167.27 1237.7L3302.97 1077.49L4146.83 17.707C4154.47 8.10915 4166.07 2.51758 4178.34 2.51758H4425.04C4459.24 2.51758 4477.88 42.4661 4455.9 68.6789L3968.85 649.518L3700.11 970.5L3565.74 1130.99C3548.4 1151.7 3563.12 1183.23 3590.13 1183.23H4163.3C4197.5 1183.23 4216.14 1223.15 4194.19 1249.37L4171 1277.06C4163.35 1286.2 4152.04 1291.48 4140.12 1291.48H3431.37Z" fill="white" stroke="white" stroke-width="5.03502"/>
<path d="M4976.59 1282.37L5412.23 771.381C5423.09 758.643 5424.94 740.516 5416.87 725.847L5235.16 395.249L5038.81 23.9669C5031.83 10.7719 5018.13 2.51758 5003.2 2.51758H4739.71C4708.71 2.51758 4689.33 36.0665 4704.81 62.92L5091.37 733.249C5099.85 747.962 5098.2 766.416 5087.23 779.383L4705.91 1230.23C4683.77 1256.41 4702.38 1296.52 4736.66 1296.52H4945.94C4957.73 1296.52 4968.94 1291.35 4976.59 1282.37Z" fill="white" stroke="white" stroke-width="5.03502"/>
</svg>
