<svg width="1202" height="258" viewBox="0 0 1202 258" fill="none" xmlns="http://www.w3.org/2000/svg">
<path d="M212.602 3.35503L11.1498 243.224C6.76021 248.451 10.5112 256.42 17.3365 256.369L62.2494 256.028C64.6257 256.01 66.871 254.937 68.377 253.099L217.312 71.3174C222.075 65.5038 231.5 68.8719 231.5 76.3874V79.7406C231.5 87.6416 241.736 90.76 246.141 84.201L252.641 74.5232C253.527 73.2043 254 71.6516 254 70.0628V8.5C254 4.08172 250.418 0.5 246 0.5H218.728C216.365 0.5 214.122 1.54513 212.602 3.35503Z" fill="black" stroke="black"/>
<path d="M232 248.476V195V173.625C232 172.232 232.363 170.864 233.054 169.655L239.054 159.155C243.124 152.033 254 154.921 254 163.125V190.652C254 198.219 263.533 201.556 268.253 195.642L421.598 3.5096C423.116 1.60763 425.417 0.5 427.851 0.5H476.834C483.631 0.5 487.332 8.44004 482.96 13.645L281.4 253.643C279.879 255.454 277.634 256.499 275.269 256.498L239.995 256.476C235.579 256.473 232 252.892 232 248.476Z" fill="black" stroke="black"/>
<path d="M1135.72 1.5H1184.71C1191.51 1.5 1195.21 9.44005 1190.84 14.645L1151.48 61.5L1110.5 108.41C1106.85 112.588 1100.16 111.874 1097.48 107.019L1079.59 74.6906C1078.02 71.8526 1078.32 68.3476 1080.35 65.8164L1129.47 4.49827C1130.99 2.60302 1133.29 1.5 1135.72 1.5Z" fill="black" stroke="black"/>
<path d="M623.791 145.76L553.072 12.037C550.414 7.00938 543.505 6.28378 539.86 10.6492L510.719 45.5469C508.5 48.2031 508.242 51.9845 510.077 54.9181L552.839 123.256C556.173 128.585 552.342 135.5 546.057 135.5H447.968C442.268 135.5 438.397 141.292 440.576 146.559L442 150L485.923 252.647C487.183 255.591 490.077 257.5 493.278 257.5H540.647C546.691 257.5 550.552 251.055 547.701 245.726L506.799 169.274C503.948 163.945 507.809 157.5 513.853 157.5H616.719C622.746 157.5 626.609 151.088 623.791 145.76Z" fill="black" stroke="black"/>
<path d="M681.5 256.5H634C628.474 256.5 625.477 250.034 629.049 245.817L656 214L823.598 3.51675C825.116 1.61054 827.42 0.5 829.856 0.5H878.852C885.646 0.5 889.347 8.4341 884.982 13.6402L788.25 129L734.875 192.75L708.188 224.625C704.744 228.738 707.668 235 713.032 235H826.869C833.66 235 837.362 242.928 833.003 248.135L828.398 253.635C826.878 255.451 824.632 256.5 822.264 256.5H681.5Z" fill="black" stroke="black"/>
<path d="M988.396 254.69L1074.92 153.203C1077.07 150.673 1077.44 147.073 1075.84 144.16L1039.75 78.5L1000.75 4.76002C999.367 2.13938 996.645 0.5 993.681 0.5H941.348C935.192 0.5 931.342 7.16312 934.418 12.4964L1011.19 145.63C1012.88 148.552 1012.55 152.217 1010.37 154.792L934.636 244.334C930.238 249.533 933.934 257.5 940.744 257.5H982.308C984.65 257.5 986.876 256.473 988.396 254.69Z" fill="black" stroke="black"/>
</svg>
