<svg width="186" height="251" viewBox="0 0 186 251" fill="none" xmlns="http://www.w3.org/2000/svg">
<path d="M184.33 138.484L113.612 4.76061C110.953 -0.266992 104.044 -0.992584 100.399 3.37288L71.2577 38.2705C69.0395 40.9268 68.7808 44.7081 70.6165 47.6418L113.378 115.98C116.712 121.308 112.882 128.224 106.596 128.224H8.50726C2.80704 128.224 -1.06437 134.015 1.11512 139.282L2.53906 142.724L46.4625 245.371C47.7221 248.315 50.6156 250.224 53.8175 250.224H101.186C107.23 250.224 111.091 243.779 108.24 238.45L67.3381 161.997C64.487 156.668 68.3481 150.224 74.392 150.224H177.258C183.286 150.224 187.148 143.812 184.33 138.484Z" fill="black" stroke="black"/>
</svg>
